<svg 
 xmlns="http://www.w3.org/2000/svg"
 xmlns:xlink="http://www.w3.org/1999/xlink"
 width="30px" height="30px">
<path fill-rule="evenodd"  fill="rgb(255, 255, 255)"
 d="M13.418,-0.000 C14.293,-0.000 15.170,-0.000 16.046,-0.000 C16.046,0.022 16.046,0.045 16.046,0.067 C16.248,0.067 16.450,0.067 16.652,0.067 C16.652,0.090 16.652,0.112 16.652,0.135 C16.809,0.135 16.966,0.135 17.124,0.135 C17.124,0.157 17.124,0.180 17.124,0.202 C17.258,0.202 17.393,0.202 17.528,0.202 C17.528,0.225 17.528,0.247 17.528,0.269 C17.730,0.292 17.932,0.314 18.134,0.337 C18.134,0.359 18.134,0.382 18.134,0.404 C18.224,0.404 18.314,0.404 18.404,0.404 C18.404,0.427 18.404,0.449 18.404,0.472 C18.494,0.472 18.584,0.472 18.673,0.472 C18.673,0.494 18.673,0.516 18.673,0.539 C18.741,0.539 18.808,0.539 18.876,0.539 C18.876,0.561 18.876,0.584 18.876,0.606 C19.100,0.651 19.325,0.696 19.549,0.741 C19.549,0.763 19.549,0.786 19.549,0.808 C19.594,0.808 19.639,0.808 19.684,0.808 C19.684,0.831 19.684,0.853 19.684,0.876 C19.819,0.898 19.954,0.921 20.088,0.943 C20.088,0.966 20.088,0.988 20.088,1.010 C20.201,1.033 20.313,1.055 20.425,1.078 C20.425,1.100 20.425,1.123 20.425,1.145 C20.515,1.168 20.605,1.190 20.695,1.213 C20.695,1.235 20.695,1.257 20.695,1.280 C20.762,1.280 20.830,1.280 20.897,1.280 C20.897,1.302 20.897,1.325 20.897,1.347 C21.032,1.392 21.167,1.437 21.301,1.482 C21.301,1.504 21.301,1.527 21.301,1.549 C21.346,1.549 21.391,1.549 21.436,1.549 C21.436,1.572 21.436,1.594 21.436,1.617 C21.526,1.639 21.616,1.662 21.706,1.684 C21.728,1.729 21.751,1.774 21.773,1.819 C21.908,1.864 22.043,1.909 22.177,1.954 C22.200,1.998 22.222,2.043 22.245,2.088 C22.335,2.111 22.424,2.133 22.514,2.156 C22.537,2.201 22.559,2.245 22.582,2.290 C22.627,2.290 22.671,2.290 22.716,2.290 C22.739,2.335 22.761,2.380 22.784,2.425 C22.829,2.425 22.874,2.425 22.919,2.425 C22.941,2.470 22.963,2.515 22.986,2.560 C23.031,2.560 23.076,2.560 23.121,2.560 C23.143,2.605 23.166,2.650 23.188,2.695 C23.233,2.695 23.278,2.695 23.323,2.695 C23.368,2.762 23.413,2.829 23.458,2.897 C23.503,2.897 23.547,2.897 23.592,2.897 C23.637,2.964 23.682,3.031 23.727,3.099 C23.772,3.099 23.817,3.099 23.862,3.099 C23.952,3.211 24.042,3.323 24.131,3.436 C24.176,3.436 24.221,3.436 24.266,3.436 C24.401,3.593 24.536,3.750 24.671,3.907 C24.715,3.907 24.760,3.907 24.805,3.907 C24.962,4.087 25.120,4.266 25.277,4.446 C25.367,4.513 25.457,4.581 25.546,4.648 C25.546,4.693 25.546,4.738 25.546,4.783 C25.704,4.918 25.861,5.052 26.018,5.187 C26.018,5.232 26.018,5.277 26.018,5.322 C26.130,5.412 26.243,5.501 26.355,5.591 C26.355,5.636 26.355,5.681 26.355,5.726 C26.422,5.771 26.490,5.816 26.557,5.861 C26.557,5.906 26.557,5.950 26.557,5.995 C26.625,6.040 26.692,6.085 26.759,6.130 C26.759,6.175 26.759,6.220 26.759,6.265 C26.804,6.287 26.849,6.310 26.894,6.332 C26.917,6.400 26.939,6.467 26.962,6.534 C26.984,6.534 27.006,6.534 27.029,6.534 C27.029,6.579 27.029,6.624 27.029,6.669 C27.074,6.691 27.119,6.714 27.164,6.736 C27.186,6.826 27.209,6.916 27.231,7.006 C27.276,7.028 27.321,7.051 27.366,7.073 C27.388,7.141 27.411,7.208 27.433,7.275 C27.456,7.275 27.478,7.275 27.501,7.275 C27.501,7.320 27.501,7.365 27.501,7.410 L27.635,7.545 C27.635,7.590 27.635,7.635 27.635,7.679 C27.658,7.679 27.680,7.679 27.703,7.679 C27.703,7.724 27.703,7.769 27.703,7.814 C27.725,7.814 27.748,7.814 27.770,7.814 C27.770,7.859 27.770,7.904 27.770,7.949 C27.815,7.971 27.860,7.994 27.905,8.016 C27.905,8.061 27.905,8.106 27.905,8.151 C27.927,8.151 27.950,8.151 27.972,8.151 C27.972,8.196 27.972,8.241 27.972,8.286 C27.995,8.286 28.017,8.286 28.040,8.286 C28.040,8.353 28.040,8.420 28.040,8.488 C28.062,8.488 28.085,8.488 28.107,8.488 C28.107,8.533 28.107,8.578 28.107,8.623 C28.129,8.623 28.152,8.623 28.174,8.623 C28.197,8.712 28.219,8.802 28.242,8.892 C28.264,8.892 28.287,8.892 28.309,8.892 C28.309,8.959 28.309,9.027 28.309,9.094 C28.332,9.094 28.354,9.094 28.377,9.094 C28.377,9.139 28.377,9.184 28.377,9.229 C28.399,9.229 28.421,9.229 28.444,9.229 C28.466,9.341 28.489,9.453 28.511,9.566 C28.534,9.566 28.556,9.566 28.579,9.566 C28.601,9.700 28.624,9.835 28.646,9.970 C28.669,9.970 28.691,9.970 28.713,9.970 C28.713,10.037 28.713,10.105 28.713,10.172 C28.736,10.172 28.758,10.172 28.781,10.172 C28.781,10.239 28.781,10.307 28.781,10.374 C28.803,10.374 28.826,10.374 28.848,10.374 C28.848,10.441 28.848,10.509 28.848,10.576 C28.871,10.576 28.893,10.576 28.916,10.576 C28.938,10.756 28.961,10.935 28.983,11.115 C29.005,11.115 29.028,11.115 29.050,11.115 C29.073,11.295 29.095,11.474 29.118,11.654 C29.140,11.654 29.163,11.654 29.185,11.654 C29.185,11.766 29.185,11.878 29.185,11.991 C29.208,11.991 29.230,11.991 29.253,11.991 C29.253,12.125 29.253,12.260 29.253,12.395 C29.275,12.395 29.297,12.395 29.320,12.395 C29.320,12.552 29.320,12.709 29.320,12.866 C29.342,12.866 29.365,12.866 29.387,12.866 C29.410,13.630 29.432,14.393 29.455,15.157 C29.454,17.013 29.017,18.700 28.444,20.007 C28.444,20.074 28.444,20.142 28.444,20.209 C28.421,20.209 28.399,20.209 28.377,20.209 C28.377,20.254 28.377,20.299 28.377,20.344 C28.354,20.344 28.332,20.344 28.309,20.344 C28.309,20.411 28.309,20.479 28.309,20.546 C28.287,20.546 28.264,20.546 28.242,20.546 C28.219,20.636 28.197,20.726 28.174,20.815 C28.152,20.815 28.129,20.815 28.107,20.815 C28.107,20.860 28.107,20.905 28.107,20.950 C28.085,20.950 28.062,20.950 28.040,20.950 C28.040,21.017 28.040,21.085 28.040,21.152 C28.017,21.152 27.995,21.152 27.972,21.152 C27.972,21.197 27.972,21.242 27.972,21.287 C27.950,21.287 27.927,21.287 27.905,21.287 C27.905,21.332 27.905,21.377 27.905,21.422 C27.860,21.444 27.815,21.467 27.770,21.489 C27.770,21.534 27.770,21.579 27.770,21.624 C27.748,21.624 27.725,21.624 27.703,21.624 C27.703,21.669 27.703,21.714 27.703,21.758 L27.568,21.893 C27.568,21.938 27.568,21.983 27.568,22.028 C27.523,22.050 27.478,22.073 27.433,22.095 C27.411,22.185 27.388,22.275 27.366,22.365 C27.321,22.387 27.276,22.410 27.231,22.432 C27.209,22.522 27.186,22.612 27.164,22.702 C27.119,22.724 27.074,22.746 27.029,22.769 C27.029,22.814 27.029,22.859 27.029,22.904 C27.006,22.904 26.984,22.904 26.962,22.904 C26.939,22.971 26.917,23.038 26.894,23.106 C26.849,23.128 26.804,23.151 26.759,23.173 C26.759,23.218 26.759,23.263 26.759,23.308 C26.692,23.353 26.625,23.398 26.557,23.442 C26.557,23.487 26.557,23.532 26.557,23.577 C26.490,23.622 26.422,23.667 26.355,23.712 C26.355,23.757 26.355,23.802 26.355,23.847 C26.243,23.936 26.130,24.026 26.018,24.116 C26.018,24.161 26.018,24.206 26.018,24.251 C25.861,24.386 25.704,24.520 25.546,24.655 C25.546,24.700 25.546,24.745 25.546,24.790 C25.367,24.947 25.187,25.104 25.007,25.261 C24.940,25.351 24.873,25.441 24.805,25.531 C24.760,25.531 24.715,25.531 24.671,25.531 C24.536,25.688 24.401,25.845 24.266,26.002 C24.221,26.002 24.176,26.002 24.131,26.002 C24.109,26.047 24.087,26.092 24.064,26.137 C24.042,26.137 24.019,26.137 23.997,26.137 C23.952,26.204 23.907,26.272 23.862,26.339 C23.817,26.339 23.772,26.339 23.727,26.339 C23.682,26.406 23.637,26.474 23.592,26.541 C23.547,26.541 23.503,26.541 23.458,26.541 C23.413,26.609 23.368,26.676 23.323,26.743 C23.278,26.743 23.233,26.743 23.188,26.743 C23.166,26.788 23.143,26.833 23.121,26.878 C23.053,26.900 22.986,26.923 22.919,26.945 C22.919,26.968 22.919,26.990 22.919,27.013 C22.874,27.013 22.829,27.013 22.784,27.013 C22.761,27.058 22.739,27.103 22.716,27.147 C22.649,27.170 22.582,27.192 22.514,27.215 C22.514,27.237 22.514,27.260 22.514,27.282 C22.424,27.305 22.335,27.327 22.245,27.350 C22.222,27.394 22.200,27.439 22.177,27.484 C22.043,27.529 21.908,27.574 21.773,27.619 C21.751,27.664 21.728,27.709 21.706,27.754 C21.616,27.776 21.526,27.799 21.436,27.821 C21.436,27.844 21.436,27.866 21.436,27.888 C21.301,27.933 21.167,27.978 21.032,28.023 C21.032,28.046 21.032,28.068 21.032,28.091 C20.964,28.091 20.897,28.091 20.830,28.091 C20.830,28.113 20.830,28.135 20.830,28.158 C20.785,28.158 20.740,28.158 20.695,28.158 C20.695,28.180 20.695,28.203 20.695,28.225 C20.605,28.248 20.515,28.270 20.425,28.293 C20.425,28.315 20.425,28.338 20.425,28.360 C20.358,28.360 20.291,28.360 20.223,28.360 C20.223,28.382 20.223,28.405 20.223,28.427 C20.178,28.427 20.133,28.427 20.088,28.427 C20.088,28.450 20.088,28.472 20.088,28.495 C19.954,28.517 19.819,28.540 19.684,28.562 C19.684,28.585 19.684,28.607 19.684,28.629 C19.639,28.629 19.594,28.629 19.549,28.629 C19.549,28.652 19.549,28.674 19.549,28.697 C19.325,28.742 19.100,28.787 18.876,28.832 C18.876,28.854 18.876,28.876 18.876,28.899 C18.808,28.899 18.741,28.899 18.673,28.899 C18.673,28.921 18.673,28.944 18.673,28.966 C18.584,28.966 18.494,28.966 18.404,28.966 C18.404,28.989 18.404,29.011 18.404,29.034 C18.314,29.034 18.224,29.034 18.134,29.034 C18.134,29.056 18.134,29.079 18.134,29.101 C18.022,29.101 17.910,29.101 17.797,29.101 C17.797,29.123 17.797,29.146 17.797,29.168 C17.708,29.168 17.618,29.168 17.528,29.168 C17.528,29.191 17.528,29.213 17.528,29.236 C17.393,29.236 17.258,29.236 17.124,29.236 C17.124,29.258 17.124,29.281 17.124,29.303 C16.966,29.303 16.809,29.303 16.652,29.303 C16.652,29.326 16.652,29.348 16.652,29.370 C16.450,29.370 16.248,29.370 16.046,29.370 C16.046,29.393 16.046,29.415 16.046,29.438 C15.798,29.438 15.551,29.438 15.304,29.438 C14.704,29.438 13.903,29.507 13.418,29.370 C13.215,29.370 13.013,29.370 12.811,29.370 C12.811,29.348 12.811,29.326 12.811,29.303 C12.654,29.303 12.497,29.303 12.339,29.303 C12.339,29.281 12.339,29.258 12.339,29.236 C12.205,29.236 12.070,29.236 11.935,29.236 C11.935,29.213 11.935,29.191 11.935,29.168 C11.823,29.168 11.711,29.168 11.598,29.168 C10.969,28.989 10.340,28.809 9.712,28.629 C9.712,28.607 9.712,28.585 9.712,28.562 C9.667,28.562 9.622,28.562 9.577,28.562 C9.577,28.540 9.577,28.517 9.577,28.495 C9.509,28.495 9.442,28.495 9.375,28.495 C9.375,28.472 9.375,28.450 9.375,28.427 C9.330,28.427 9.285,28.427 9.240,28.427 C9.240,28.405 9.240,28.382 9.240,28.360 C9.172,28.360 9.105,28.360 9.038,28.360 C9.038,28.338 9.038,28.315 9.038,28.293 C8.948,28.270 8.858,28.248 8.768,28.225 C8.768,28.203 8.768,28.180 8.768,28.158 C8.701,28.158 8.633,28.158 8.566,28.158 C8.566,28.135 8.566,28.113 8.566,28.091 C8.431,28.046 8.296,28.001 8.162,27.956 C8.162,27.933 8.162,27.911 8.162,27.888 C8.117,27.888 8.072,27.888 8.027,27.888 C8.027,27.866 8.027,27.844 8.027,27.821 C7.937,27.799 7.847,27.776 7.757,27.754 C7.735,27.709 7.713,27.664 7.690,27.619 C7.555,27.574 7.421,27.529 7.286,27.484 C7.263,27.439 7.241,27.394 7.218,27.350 C7.173,27.350 7.129,27.350 7.084,27.350 C7.084,27.327 7.084,27.305 7.084,27.282 C7.039,27.282 6.994,27.282 6.949,27.282 C6.949,27.260 6.949,27.237 6.949,27.215 C6.881,27.192 6.814,27.170 6.747,27.147 C6.724,27.103 6.702,27.058 6.679,27.013 C6.634,27.013 6.589,27.013 6.545,27.013 C6.545,26.990 6.545,26.968 6.545,26.945 C6.477,26.923 6.410,26.900 6.342,26.878 C6.320,26.833 6.297,26.788 6.275,26.743 C6.230,26.743 6.185,26.743 6.140,26.743 C6.095,26.676 6.050,26.609 6.005,26.541 C5.961,26.541 5.916,26.541 5.871,26.541 C5.826,26.474 5.781,26.406 5.736,26.339 C5.691,26.339 5.646,26.339 5.601,26.339 C5.534,26.249 5.466,26.159 5.399,26.070 C5.354,26.070 5.309,26.070 5.264,26.070 C5.130,25.913 4.995,25.755 4.860,25.598 C4.815,25.598 4.770,25.598 4.725,25.598 C4.546,25.396 4.366,25.194 4.186,24.992 C4.074,24.902 3.962,24.812 3.849,24.722 C3.849,24.678 3.849,24.633 3.849,24.588 C3.692,24.453 3.535,24.318 3.378,24.183 C3.378,24.139 3.378,24.094 3.378,24.049 C3.288,23.981 3.198,23.914 3.108,23.847 C3.108,23.802 3.108,23.757 3.108,23.712 C3.041,23.667 2.973,23.622 2.906,23.577 C2.906,23.532 2.906,23.487 2.906,23.442 C2.839,23.398 2.771,23.353 2.704,23.308 C2.704,23.263 2.704,23.218 2.704,23.173 C2.659,23.151 2.614,23.128 2.569,23.106 C2.547,23.038 2.524,22.971 2.502,22.904 C2.479,22.904 2.457,22.904 2.434,22.904 C2.434,22.859 2.434,22.814 2.434,22.769 C2.389,22.746 2.344,22.724 2.299,22.702 C2.277,22.634 2.255,22.567 2.232,22.499 C2.210,22.499 2.187,22.499 2.165,22.499 C2.142,22.410 2.120,22.320 2.097,22.230 C2.052,22.208 2.007,22.185 1.963,22.163 C1.918,22.028 1.873,21.893 1.828,21.758 C1.783,21.736 1.738,21.714 1.693,21.691 C1.671,21.601 1.648,21.511 1.626,21.422 C1.603,21.422 1.581,21.422 1.558,21.422 C1.513,21.287 1.468,21.152 1.423,21.017 C1.401,21.017 1.379,21.017 1.356,21.017 C1.356,20.950 1.356,20.883 1.356,20.815 C1.334,20.815 1.311,20.815 1.289,20.815 C1.289,20.770 1.289,20.726 1.289,20.681 C1.266,20.681 1.244,20.681 1.221,20.681 C1.199,20.591 1.176,20.501 1.154,20.411 C1.131,20.411 1.109,20.411 1.087,20.411 C1.087,20.344 1.087,20.276 1.087,20.209 C1.064,20.209 1.042,20.209 1.019,20.209 C1.019,20.164 1.019,20.119 1.019,20.074 C0.997,20.074 0.974,20.074 0.952,20.074 C0.929,19.940 0.907,19.805 0.884,19.670 C0.862,19.670 0.839,19.670 0.817,19.670 C0.817,19.603 0.817,19.535 0.817,19.468 C0.795,19.468 0.772,19.468 0.750,19.468 C0.750,19.401 0.750,19.333 0.750,19.266 C0.727,19.266 0.705,19.266 0.682,19.266 C0.682,19.199 0.682,19.131 0.682,19.064 C0.660,19.064 0.637,19.064 0.615,19.064 C0.615,18.997 0.615,18.929 0.615,18.862 C0.592,18.862 0.570,18.862 0.547,18.862 C0.547,18.794 0.547,18.727 0.547,18.660 C0.525,18.660 0.503,18.660 0.480,18.660 C0.480,18.570 0.480,18.480 0.480,18.390 C0.161,17.439 0.009,16.281 0.008,15.022 C0.008,14.521 -0.034,13.864 0.076,13.473 C0.098,13.091 0.121,12.709 0.143,12.328 C0.166,12.328 0.188,12.328 0.211,12.328 C0.211,12.215 0.211,12.103 0.211,11.991 C0.233,11.991 0.255,11.991 0.278,11.991 C0.278,11.878 0.278,11.766 0.278,11.654 C0.300,11.654 0.323,11.654 0.345,11.654 C0.345,11.542 0.345,11.429 0.345,11.317 C0.368,11.317 0.390,11.317 0.413,11.317 C0.413,11.227 0.413,11.137 0.413,11.048 C0.435,11.048 0.458,11.048 0.480,11.048 C0.480,10.958 0.480,10.868 0.480,10.778 C0.503,10.778 0.525,10.778 0.547,10.778 C0.547,10.711 0.547,10.643 0.547,10.576 C0.570,10.576 0.592,10.576 0.615,10.576 C0.615,10.509 0.615,10.441 0.615,10.374 C0.637,10.374 0.660,10.374 0.682,10.374 C0.682,10.307 0.682,10.239 0.682,10.172 C0.705,10.172 0.727,10.172 0.750,10.172 C0.750,10.105 0.750,10.037 0.750,9.970 C0.772,9.970 0.795,9.970 0.817,9.970 C0.817,9.902 0.817,9.835 0.817,9.768 C0.839,9.768 0.862,9.768 0.884,9.768 C0.907,9.633 0.929,9.498 0.952,9.364 C0.974,9.364 0.997,9.364 1.019,9.364 C1.042,9.251 1.064,9.139 1.087,9.027 C1.109,9.027 1.131,9.027 1.154,9.027 C1.176,8.937 1.199,8.847 1.221,8.757 C1.244,8.757 1.266,8.757 1.289,8.757 C1.289,8.712 1.289,8.667 1.289,8.623 C1.311,8.623 1.334,8.623 1.356,8.623 C1.356,8.555 1.356,8.488 1.356,8.420 C1.379,8.420 1.401,8.420 1.423,8.420 C1.468,8.286 1.513,8.151 1.558,8.016 C1.581,8.016 1.603,8.016 1.626,8.016 C1.648,7.926 1.671,7.837 1.693,7.747 C1.738,7.724 1.783,7.702 1.828,7.679 C1.873,7.545 1.918,7.410 1.963,7.275 C2.007,7.253 2.052,7.230 2.097,7.208 C2.120,7.118 2.142,7.028 2.165,6.938 C2.210,6.916 2.255,6.894 2.299,6.871 C2.299,6.826 2.299,6.781 2.299,6.736 C2.344,6.714 2.389,6.691 2.434,6.669 C2.434,6.624 2.434,6.579 2.434,6.534 C2.479,6.512 2.524,6.489 2.569,6.467 C2.569,6.422 2.569,6.377 2.569,6.332 C2.614,6.310 2.659,6.287 2.704,6.265 C2.704,6.220 2.704,6.175 2.704,6.130 C2.771,6.085 2.839,6.040 2.906,5.995 C2.906,5.950 2.906,5.906 2.906,5.861 C2.973,5.816 3.041,5.771 3.108,5.726 C3.108,5.681 3.108,5.636 3.108,5.591 C3.198,5.524 3.288,5.456 3.378,5.389 C3.378,5.344 3.378,5.299 3.378,5.254 C3.535,5.120 3.692,4.985 3.849,4.850 C3.849,4.805 3.849,4.760 3.849,4.715 C3.962,4.626 4.074,4.536 4.186,4.446 C4.366,4.244 4.546,4.042 4.725,3.840 C4.770,3.840 4.815,3.840 4.860,3.840 C4.995,3.683 5.130,3.525 5.264,3.368 C5.309,3.368 5.354,3.368 5.399,3.368 C5.466,3.278 5.534,3.189 5.601,3.099 C5.646,3.099 5.691,3.099 5.736,3.099 C5.781,3.031 5.826,2.964 5.871,2.897 C5.916,2.897 5.961,2.897 6.005,2.897 C6.050,2.829 6.095,2.762 6.140,2.695 C6.185,2.695 6.230,2.695 6.275,2.695 C6.297,2.650 6.320,2.605 6.342,2.560 C6.410,2.537 6.477,2.515 6.545,2.492 C6.545,2.470 6.545,2.448 6.545,2.425 C6.589,2.425 6.634,2.425 6.679,2.425 C6.702,2.380 6.724,2.335 6.747,2.290 C6.814,2.268 6.881,2.245 6.949,2.223 C6.949,2.201 6.949,2.178 6.949,2.156 C6.994,2.156 7.039,2.156 7.084,2.156 C7.084,2.133 7.084,2.111 7.084,2.088 C7.129,2.088 7.173,2.088 7.218,2.088 C7.241,2.043 7.263,1.998 7.286,1.954 C7.421,1.909 7.555,1.864 7.690,1.819 C7.713,1.774 7.735,1.729 7.757,1.684 C7.847,1.662 7.937,1.639 8.027,1.617 C8.027,1.594 8.027,1.572 8.027,1.549 C8.072,1.549 8.117,1.549 8.162,1.549 C8.162,1.527 8.162,1.504 8.162,1.482 C8.296,1.437 8.431,1.392 8.566,1.347 C8.566,1.325 8.566,1.302 8.566,1.280 C8.633,1.280 8.701,1.280 8.768,1.280 C8.768,1.257 8.768,1.235 8.768,1.213 C8.858,1.190 8.948,1.168 9.038,1.145 C9.038,1.123 9.038,1.100 9.038,1.078 C9.105,1.078 9.172,1.078 9.240,1.078 C9.240,1.055 9.240,1.033 9.240,1.010 C9.285,1.010 9.330,1.010 9.375,1.010 C9.375,0.988 9.375,0.966 9.375,0.943 C9.442,0.943 9.509,0.943 9.577,0.943 C9.577,0.921 9.577,0.898 9.577,0.876 C9.622,0.876 9.667,0.876 9.712,0.876 C9.712,0.853 9.712,0.831 9.712,0.808 C10.340,0.629 10.969,0.449 11.598,0.269 C12.205,0.180 12.811,0.090 13.418,-0.000 ZM1.356,14.281 C1.715,14.281 2.075,14.281 2.434,14.281 C2.434,13.899 2.434,13.518 2.434,13.136 C2.591,13.136 2.749,13.136 2.906,13.136 C2.906,13.518 2.906,13.899 2.906,14.281 C3.917,14.281 4.927,14.281 5.938,14.281 C5.938,13.899 5.938,13.518 5.938,13.136 C6.095,13.136 6.253,13.136 6.410,13.136 C6.410,13.518 6.410,13.899 6.410,14.281 C7.420,14.281 8.431,14.281 9.442,14.281 C9.442,13.899 9.442,13.518 9.442,13.136 C9.599,13.136 9.756,13.136 9.914,13.136 C9.914,13.518 9.914,13.899 9.914,14.281 C10.655,14.281 11.396,14.281 12.137,14.281 C12.146,14.644 12.198,15.015 12.137,15.089 C12.024,15.191 11.745,15.156 11.531,15.157 C10.992,15.157 10.453,15.157 9.914,15.157 C9.914,15.516 9.914,15.875 9.914,16.235 C9.798,16.278 9.702,16.299 9.509,16.302 C9.408,16.029 9.439,15.535 9.442,15.157 C8.431,15.157 7.420,15.157 6.410,15.157 C6.410,15.516 6.410,15.875 6.410,16.235 C6.253,16.235 6.095,16.235 5.938,16.235 C5.938,15.875 5.938,15.516 5.938,15.157 C4.927,15.157 3.917,15.157 2.906,15.157 C2.906,15.516 2.906,15.875 2.906,16.235 C2.749,16.235 2.591,16.235 2.434,16.235 C2.426,16.133 2.367,16.100 2.367,16.100 C2.389,16.055 2.412,16.010 2.434,15.965 C2.434,15.830 2.434,15.696 2.434,15.561 C2.412,15.561 2.389,15.561 2.367,15.561 C2.367,15.539 2.367,15.516 2.367,15.494 C2.389,15.494 2.412,15.494 2.434,15.494 C2.468,15.346 2.400,15.306 2.367,15.224 C2.389,15.224 2.412,15.224 2.434,15.224 C2.434,15.202 2.434,15.179 2.434,15.157 C2.075,15.157 1.715,15.157 1.356,15.157 C1.333,16.390 1.636,17.680 1.963,18.592 C1.963,18.682 1.963,18.772 1.963,18.862 C1.985,18.862 2.007,18.862 2.030,18.862 C2.052,18.996 2.075,19.131 2.097,19.266 C2.120,19.266 2.142,19.266 2.165,19.266 C2.165,19.311 2.165,19.356 2.165,19.401 C2.187,19.401 2.210,19.401 2.232,19.401 C2.232,19.468 2.232,19.535 2.232,19.603 C2.255,19.603 2.277,19.603 2.299,19.603 C2.299,19.648 2.299,19.693 2.299,19.738 C2.322,19.738 2.344,19.738 2.367,19.738 C2.367,19.805 2.367,19.872 2.367,19.940 C2.389,19.940 2.412,19.940 2.434,19.940 C2.457,20.029 2.479,20.119 2.502,20.209 C2.524,20.209 2.547,20.209 2.569,20.209 C2.569,20.254 2.569,20.299 2.569,20.344 C2.591,20.344 2.614,20.344 2.636,20.344 C2.636,20.411 2.636,20.479 2.636,20.546 C2.659,20.546 2.681,20.546 2.704,20.546 C2.704,20.591 2.704,20.636 2.704,20.681 C2.726,20.681 2.749,20.681 2.771,20.681 C2.771,20.726 2.771,20.770 2.771,20.815 C2.816,20.838 2.861,20.860 2.906,20.883 C2.906,20.928 2.906,20.973 2.906,21.017 C2.928,21.017 2.951,21.017 2.973,21.017 C2.973,21.062 2.973,21.107 2.973,21.152 C2.996,21.152 3.018,21.152 3.041,21.152 C3.041,21.197 3.041,21.242 3.041,21.287 L3.175,21.422 C3.175,21.466 3.175,21.511 3.175,21.556 C3.220,21.579 3.265,21.601 3.310,21.624 C3.310,21.669 3.310,21.714 3.310,21.758 C3.355,21.781 3.400,21.803 3.445,21.826 C3.445,21.871 3.445,21.916 3.445,21.961 C3.490,21.983 3.535,22.005 3.580,22.028 C3.602,22.118 3.625,22.208 3.647,22.297 C3.714,22.342 3.782,22.387 3.849,22.432 C3.849,22.477 3.849,22.522 3.849,22.567 C3.894,22.589 3.939,22.612 3.984,22.634 C3.984,22.679 3.984,22.724 3.984,22.769 C4.074,22.836 4.164,22.904 4.254,22.971 C4.254,23.016 4.254,23.061 4.254,23.106 C4.343,23.173 4.433,23.240 4.523,23.308 C4.523,23.353 4.523,23.398 4.523,23.442 C4.680,23.577 4.838,23.712 4.995,23.847 C5.433,24.284 5.837,24.831 6.342,25.194 C6.387,25.194 6.432,25.194 6.477,25.194 C6.545,25.284 6.612,25.374 6.679,25.463 C6.724,25.463 6.769,25.463 6.814,25.463 C6.837,25.508 6.859,25.553 6.881,25.598 C6.926,25.598 6.971,25.598 7.016,25.598 C7.061,25.665 7.106,25.733 7.151,25.800 C7.196,25.800 7.241,25.800 7.286,25.800 C7.308,25.845 7.331,25.890 7.353,25.935 C7.443,25.957 7.533,25.980 7.623,26.002 C7.645,26.047 7.668,26.092 7.690,26.137 C7.757,26.159 7.825,26.182 7.892,26.204 C7.892,26.227 7.892,26.249 7.892,26.272 C8.027,26.317 8.162,26.362 8.297,26.406 C8.319,26.451 8.341,26.496 8.364,26.541 C8.454,26.564 8.544,26.586 8.633,26.609 C8.633,26.631 8.633,26.653 8.633,26.676 C8.768,26.721 8.903,26.766 9.038,26.811 C9.038,26.833 9.038,26.856 9.038,26.878 C9.105,26.878 9.172,26.878 9.240,26.878 C9.240,26.900 9.240,26.923 9.240,26.945 C9.330,26.968 9.420,26.990 9.509,27.013 C9.509,27.035 9.509,27.058 9.509,27.080 C9.577,27.080 9.644,27.080 9.712,27.080 C10.965,27.633 12.507,28.075 14.294,28.091 C14.294,27.754 14.294,27.417 14.294,27.080 C13.934,27.080 13.575,27.080 13.215,27.080 C13.168,26.954 13.149,26.817 13.148,26.609 C13.421,26.507 13.915,26.538 14.294,26.541 C14.294,25.531 14.294,24.520 14.294,23.510 C13.912,23.510 13.530,23.510 13.148,23.510 C13.148,23.353 13.148,23.195 13.148,23.038 C13.530,23.038 13.912,23.038 14.294,23.038 C14.294,22.028 14.294,21.017 14.294,20.007 C13.912,20.007 13.530,20.007 13.148,20.007 C13.148,19.850 13.148,19.693 13.148,19.535 C13.530,19.535 13.912,19.535 14.294,19.535 C14.294,18.772 14.294,18.008 14.294,17.245 C14.586,17.245 14.878,17.245 15.170,17.245 C15.170,18.008 15.170,18.772 15.170,19.535 C15.551,19.535 15.933,19.535 16.315,19.535 C16.315,19.693 16.315,19.850 16.315,20.007 C15.933,20.007 15.551,20.007 15.170,20.007 C15.170,21.017 15.170,22.028 15.170,23.038 C15.529,23.038 15.888,23.038 16.248,23.038 C16.295,23.164 16.315,23.302 16.315,23.510 C15.933,23.510 15.551,23.510 15.170,23.510 C15.170,24.520 15.170,25.531 15.170,26.541 C15.529,26.541 15.888,26.541 16.248,26.541 C16.295,26.667 16.315,26.805 16.315,27.013 C16.042,27.115 15.548,27.083 15.170,27.080 C15.170,27.417 15.170,27.754 15.170,28.091 C16.033,28.107 16.931,27.962 17.595,27.754 C17.865,27.709 18.134,27.664 18.404,27.619 C18.404,27.597 18.404,27.574 18.404,27.552 C18.696,27.484 18.988,27.417 19.280,27.350 C19.280,27.327 19.280,27.305 19.280,27.282 C19.325,27.282 19.370,27.282 19.415,27.282 C19.415,27.260 19.415,27.237 19.415,27.215 C19.482,27.215 19.549,27.215 19.617,27.215 C19.617,27.192 19.617,27.170 19.617,27.147 C19.662,27.147 19.707,27.147 19.752,27.147 C19.752,27.125 19.752,27.103 19.752,27.080 C19.819,27.080 19.886,27.080 19.954,27.080 C19.954,27.058 19.954,27.035 19.954,27.013 C20.044,26.990 20.133,26.968 20.223,26.945 C20.223,26.923 20.223,26.900 20.223,26.878 C20.291,26.878 20.358,26.878 20.425,26.878 C20.425,26.856 20.425,26.833 20.425,26.811 C20.515,26.788 20.605,26.766 20.695,26.743 C20.695,26.721 20.695,26.698 20.695,26.676 C20.785,26.653 20.875,26.631 20.964,26.609 C20.987,26.564 21.009,26.519 21.032,26.474 C21.077,26.474 21.122,26.474 21.167,26.474 C21.167,26.451 21.167,26.429 21.167,26.406 C21.212,26.406 21.256,26.406 21.301,26.406 L21.436,26.272 C21.481,26.272 21.526,26.272 21.571,26.272 C21.571,26.249 21.571,26.227 21.571,26.204 C21.638,26.182 21.706,26.159 21.773,26.137 C21.796,26.092 21.818,26.047 21.840,26.002 C21.885,26.002 21.930,26.002 21.975,26.002 C21.998,25.957 22.020,25.912 22.043,25.868 C22.088,25.868 22.132,25.868 22.177,25.868 C22.177,25.845 22.177,25.823 22.177,25.800 C22.245,25.778 22.312,25.755 22.380,25.733 C22.402,25.688 22.424,25.643 22.447,25.598 C22.492,25.598 22.537,25.598 22.582,25.598 C22.627,25.531 22.671,25.463 22.716,25.396 C22.761,25.396 22.806,25.396 22.851,25.396 C22.896,25.329 22.941,25.261 22.986,25.194 C23.031,25.194 23.076,25.194 23.121,25.194 C23.211,25.082 23.300,24.969 23.390,24.857 C23.435,24.857 23.480,24.857 23.525,24.857 C23.750,24.610 23.974,24.363 24.199,24.116 C24.423,23.914 24.648,23.712 24.873,23.510 C24.873,23.465 24.873,23.420 24.873,23.375 C24.985,23.285 25.097,23.195 25.210,23.106 C25.210,23.061 25.210,23.016 25.210,22.971 C25.277,22.926 25.344,22.881 25.412,22.836 C25.412,22.791 25.412,22.746 25.412,22.702 C25.479,22.657 25.546,22.612 25.614,22.567 C25.614,22.522 25.614,22.477 25.614,22.432 C25.659,22.410 25.704,22.387 25.749,22.365 C25.771,22.297 25.794,22.230 25.816,22.163 C25.838,22.163 25.861,22.163 25.883,22.163 C25.883,22.118 25.883,22.073 25.883,22.028 C25.928,22.005 25.973,21.983 26.018,21.961 C26.018,21.916 26.018,21.871 26.018,21.826 C26.063,21.803 26.108,21.781 26.153,21.758 C26.175,21.669 26.198,21.579 26.220,21.489 C26.265,21.467 26.310,21.444 26.355,21.422 C26.355,21.377 26.355,21.332 26.355,21.287 L26.490,21.152 C26.490,21.107 26.490,21.062 26.490,21.017 C26.512,21.017 26.535,21.017 26.557,21.017 C26.557,20.973 26.557,20.928 26.557,20.883 C26.580,20.883 26.602,20.883 26.625,20.883 C26.625,20.838 26.625,20.793 26.625,20.748 C26.647,20.748 26.670,20.748 26.692,20.748 C26.692,20.703 26.692,20.658 26.692,20.613 C26.714,20.613 26.737,20.613 26.759,20.613 C26.759,20.568 26.759,20.523 26.759,20.479 C26.782,20.479 26.804,20.479 26.827,20.479 C26.827,20.434 26.827,20.389 26.827,20.344 C26.849,20.344 26.872,20.344 26.894,20.344 C26.939,20.209 26.984,20.074 27.029,19.940 C27.051,19.940 27.074,19.940 27.096,19.940 C27.096,19.872 27.096,19.805 27.096,19.738 C27.119,19.738 27.141,19.738 27.164,19.738 C27.164,19.693 27.164,19.648 27.164,19.603 C27.186,19.603 27.209,19.603 27.231,19.603 C27.276,19.401 27.321,19.199 27.366,18.997 C27.780,17.948 28.091,16.585 28.107,15.157 C27.748,15.157 27.388,15.157 27.029,15.157 C27.029,15.538 27.029,15.920 27.029,16.302 C26.872,16.302 26.714,16.302 26.557,16.302 C26.557,15.920 26.557,15.538 26.557,15.157 C25.547,15.157 24.536,15.157 23.525,15.157 C23.525,15.538 23.525,15.920 23.525,16.302 C23.368,16.302 23.211,16.302 23.053,16.302 C23.053,15.920 23.053,15.538 23.053,15.157 C22.043,15.157 21.032,15.157 20.021,15.157 C20.021,15.538 20.021,15.920 20.021,16.302 C19.864,16.302 19.707,16.302 19.549,16.302 C19.549,15.920 19.549,15.538 19.549,15.157 C18.786,15.157 18.022,15.157 17.258,15.157 C17.258,14.865 17.258,14.573 17.258,14.281 C18.022,14.281 18.786,14.281 19.549,14.281 C19.549,13.922 19.549,13.562 19.549,13.203 C19.665,13.159 19.761,13.139 19.954,13.136 C20.056,13.409 20.024,13.903 20.021,14.281 C21.032,14.281 22.043,14.281 23.053,14.281 C23.053,13.922 23.053,13.562 23.053,13.203 C23.211,13.203 23.368,13.203 23.525,13.203 C23.525,13.562 23.525,13.922 23.525,14.281 C24.536,14.281 25.547,14.281 26.557,14.281 C26.557,13.922 26.557,13.562 26.557,13.203 C26.714,13.203 26.872,13.203 27.029,13.203 C27.029,13.562 27.029,13.922 27.029,14.281 C27.388,14.281 27.748,14.281 28.107,14.281 C28.114,13.869 28.066,13.391 27.972,13.069 C27.927,12.664 27.882,12.260 27.838,11.856 C27.590,11.070 27.343,10.284 27.096,9.498 C27.074,9.498 27.051,9.498 27.029,9.498 C26.984,9.364 26.939,9.229 26.894,9.094 C26.872,9.094 26.849,9.094 26.827,9.094 C26.827,9.049 26.827,9.004 26.827,8.959 C26.804,8.959 26.782,8.959 26.759,8.959 C26.759,8.914 26.759,8.870 26.759,8.825 C26.737,8.825 26.714,8.825 26.692,8.825 C26.692,8.780 26.692,8.735 26.692,8.690 C26.670,8.690 26.647,8.690 26.625,8.690 C26.625,8.645 26.625,8.600 26.625,8.555 C26.602,8.555 26.580,8.555 26.557,8.555 C26.557,8.510 26.557,8.465 26.557,8.420 C26.535,8.420 26.512,8.420 26.490,8.420 C26.490,8.376 26.490,8.331 26.490,8.286 L26.355,8.151 C26.355,8.106 26.355,8.061 26.355,8.016 C26.310,7.994 26.265,7.971 26.220,7.949 C26.198,7.859 26.175,7.769 26.153,7.679 C26.108,7.657 26.063,7.635 26.018,7.612 C26.018,7.567 26.018,7.522 26.018,7.477 C25.973,7.455 25.928,7.432 25.883,7.410 C25.883,7.365 25.883,7.320 25.883,7.275 C25.861,7.275 25.838,7.275 25.816,7.275 C25.794,7.208 25.771,7.141 25.749,7.073 C25.704,7.051 25.659,7.028 25.614,7.006 C25.614,6.961 25.614,6.916 25.614,6.871 C25.546,6.826 25.479,6.781 25.412,6.736 C25.412,6.691 25.412,6.647 25.412,6.602 C25.344,6.557 25.277,6.512 25.210,6.467 C25.210,6.422 25.210,6.377 25.210,6.332 C25.097,6.242 24.985,6.153 24.873,6.063 C24.873,6.018 24.873,5.973 24.873,5.928 C24.648,5.726 24.423,5.524 24.199,5.322 C23.997,5.097 23.795,4.873 23.592,4.648 C23.547,4.648 23.503,4.648 23.458,4.648 C23.345,4.513 23.233,4.379 23.121,4.244 C23.076,4.244 23.031,4.244 22.986,4.244 C22.941,4.177 22.896,4.109 22.851,4.042 C22.784,4.019 22.716,3.997 22.649,3.974 C22.627,3.930 22.604,3.885 22.582,3.840 C22.537,3.840 22.492,3.840 22.447,3.840 C22.424,3.795 22.402,3.750 22.380,3.705 C22.335,3.705 22.290,3.705 22.245,3.705 C22.200,3.638 22.155,3.570 22.110,3.503 C22.020,3.480 21.930,3.458 21.840,3.436 C21.818,3.391 21.796,3.346 21.773,3.301 C21.706,3.278 21.638,3.256 21.571,3.233 C21.571,3.211 21.571,3.189 21.571,3.166 C21.526,3.166 21.481,3.166 21.436,3.166 L21.301,3.031 C21.256,3.031 21.212,3.031 21.167,3.031 C21.167,3.009 21.167,2.986 21.167,2.964 C21.122,2.964 21.077,2.964 21.032,2.964 C21.009,2.919 20.987,2.874 20.964,2.829 C20.875,2.807 20.785,2.784 20.695,2.762 C20.695,2.739 20.695,2.717 20.695,2.695 C20.605,2.672 20.515,2.650 20.425,2.627 C20.425,2.605 20.425,2.582 20.425,2.560 C20.358,2.560 20.291,2.560 20.223,2.560 C20.223,2.537 20.223,2.515 20.223,2.492 C20.133,2.470 20.044,2.448 19.954,2.425 C19.954,2.403 19.954,2.380 19.954,2.358 C19.886,2.358 19.819,2.358 19.752,2.358 C19.752,2.335 19.752,2.313 19.752,2.290 C19.707,2.290 19.662,2.290 19.617,2.290 C19.617,2.268 19.617,2.245 19.617,2.223 C19.549,2.223 19.482,2.223 19.415,2.223 C19.415,2.201 19.415,2.178 19.415,2.156 C19.370,2.156 19.325,2.156 19.280,2.156 C19.280,2.133 19.280,2.111 19.280,2.088 C18.988,2.021 18.696,1.954 18.404,1.886 C17.507,1.567 16.360,1.358 15.170,1.347 C15.170,1.684 15.170,2.021 15.170,2.358 C15.529,2.358 15.888,2.358 16.248,2.358 C16.295,2.484 16.315,2.621 16.315,2.829 C16.042,2.931 15.548,2.900 15.170,2.897 C15.170,3.907 15.170,4.918 15.170,5.928 C15.551,5.928 15.933,5.928 16.315,5.928 C16.315,6.063 16.315,6.197 16.315,6.332 C16.042,6.434 15.548,6.403 15.170,6.400 C15.170,7.410 15.170,8.421 15.170,9.431 C15.551,9.431 15.933,9.431 16.315,9.431 C16.315,9.588 16.315,9.745 16.315,9.902 C15.933,9.902 15.551,9.902 15.170,9.902 C15.170,10.666 15.170,11.429 15.170,12.193 C14.878,12.193 14.586,12.193 14.294,12.193 C14.294,11.429 14.294,10.666 14.294,9.902 C13.912,9.902 13.530,9.902 13.148,9.902 C13.148,9.745 13.148,9.588 13.148,9.431 C13.530,9.431 13.912,9.431 14.294,9.431 C14.294,8.421 14.294,7.410 14.294,6.400 C13.912,6.400 13.530,6.400 13.148,6.400 C13.148,6.242 13.148,6.085 13.148,5.928 C13.530,5.928 13.912,5.928 14.294,5.928 C14.294,4.918 14.294,3.907 14.294,2.897 C13.934,2.897 13.575,2.897 13.215,2.897 C13.168,2.771 13.149,2.633 13.148,2.425 C13.421,2.323 13.915,2.354 14.294,2.358 C14.294,2.021 14.294,1.684 14.294,1.347 C13.437,1.331 12.522,1.474 11.868,1.684 C11.598,1.729 11.329,1.774 11.059,1.819 C11.059,1.841 11.059,1.864 11.059,1.886 C10.767,1.954 10.475,2.021 10.183,2.088 C10.183,2.111 10.183,2.133 10.183,2.156 C10.138,2.156 10.093,2.156 10.048,2.156 C10.048,2.178 10.048,2.201 10.048,2.223 C9.981,2.223 9.914,2.223 9.846,2.223 C9.846,2.245 9.846,2.268 9.846,2.290 C9.801,2.290 9.756,2.290 9.712,2.290 C9.712,2.313 9.712,2.335 9.712,2.358 C9.644,2.358 9.577,2.358 9.509,2.358 C9.509,2.380 9.509,2.403 9.509,2.425 C9.420,2.448 9.330,2.470 9.240,2.492 C9.240,2.515 9.240,2.537 9.240,2.560 C9.172,2.560 9.105,2.560 9.038,2.560 C9.038,2.582 9.038,2.605 9.038,2.627 C8.903,2.672 8.768,2.717 8.633,2.762 C8.633,2.784 8.633,2.807 8.633,2.829 C8.544,2.852 8.454,2.874 8.364,2.897 C8.341,2.942 8.319,2.986 8.297,3.031 C8.162,3.076 8.027,3.121 7.892,3.166 C7.892,3.189 7.892,3.211 7.892,3.233 C7.825,3.256 7.757,3.278 7.690,3.301 C7.668,3.346 7.645,3.391 7.623,3.436 C7.533,3.458 7.443,3.480 7.353,3.503 C7.331,3.548 7.308,3.593 7.286,3.638 C7.241,3.638 7.196,3.638 7.151,3.638 C7.106,3.705 7.061,3.772 7.016,3.840 C6.971,3.840 6.926,3.840 6.881,3.840 C6.859,3.885 6.837,3.930 6.814,3.974 C6.769,3.974 6.724,3.974 6.679,3.974 C6.612,4.064 6.545,4.154 6.477,4.244 C6.432,4.244 6.387,4.244 6.342,4.244 C6.275,4.334 6.208,4.424 6.140,4.513 C6.095,4.513 6.050,4.513 6.005,4.513 C5.871,4.671 5.736,4.828 5.601,4.985 C5.163,5.423 4.616,5.827 4.254,6.332 C4.254,6.377 4.254,6.422 4.254,6.467 C4.164,6.534 4.074,6.602 3.984,6.669 C3.984,6.714 3.984,6.759 3.984,6.804 C3.939,6.826 3.894,6.849 3.849,6.871 C3.849,6.916 3.849,6.961 3.849,7.006 C3.782,7.051 3.714,7.096 3.647,7.141 C3.625,7.230 3.602,7.320 3.580,7.410 C3.535,7.432 3.490,7.455 3.445,7.477 C3.445,7.522 3.445,7.567 3.445,7.612 C3.400,7.635 3.355,7.657 3.310,7.679 C3.288,7.747 3.265,7.814 3.243,7.882 C3.220,7.882 3.198,7.882 3.175,7.882 C3.175,7.926 3.175,7.971 3.175,8.016 L3.041,8.151 C3.041,8.196 3.041,8.241 3.041,8.286 C3.018,8.286 2.996,8.286 2.973,8.286 C2.973,8.331 2.973,8.376 2.973,8.420 C2.928,8.443 2.883,8.465 2.838,8.488 C2.838,8.533 2.838,8.578 2.838,8.623 C2.816,8.623 2.794,8.623 2.771,8.623 C2.749,8.712 2.726,8.802 2.704,8.892 C2.681,8.892 2.659,8.892 2.636,8.892 C2.636,8.959 2.636,9.027 2.636,9.094 C2.614,9.094 2.591,9.094 2.569,9.094 C2.569,9.139 2.569,9.184 2.569,9.229 C2.547,9.229 2.524,9.229 2.502,9.229 C2.479,9.319 2.457,9.408 2.434,9.498 C2.412,9.498 2.389,9.498 2.367,9.498 C2.367,9.566 2.367,9.633 2.367,9.700 C1.816,10.948 1.373,12.514 1.356,14.281 ZM14.630,13.607 C14.788,13.630 14.945,13.652 15.102,13.675 C15.102,13.697 15.102,13.720 15.102,13.742 C15.553,13.837 15.513,14.116 15.776,14.348 C15.776,14.461 15.776,14.573 15.776,14.685 C15.798,14.685 15.821,14.685 15.843,14.685 C15.843,14.708 15.843,14.730 15.843,14.753 C15.776,14.955 15.709,15.157 15.641,15.359 C15.551,15.426 15.462,15.494 15.372,15.561 C15.372,15.583 15.372,15.606 15.372,15.628 C15.259,15.706 15.217,15.627 15.102,15.763 C14.816,15.784 14.552,15.879 14.361,15.696 C13.910,15.601 13.950,15.322 13.687,15.089 C13.666,14.804 13.571,14.539 13.755,14.348 C13.849,13.898 14.129,13.937 14.361,13.675 C14.451,13.675 14.541,13.675 14.630,13.675 C14.630,13.652 14.630,13.630 14.630,13.607 Z"/>
</svg>
